<?xml version="1.0" ?>
<svg id="Outline" style="enable-background:new 0 0 64 64;" version="1.1" viewBox="0 0 64 64"
    xml:space="preserve" xmlns="http://www.w3.org/2000/svg"
    xmlns:xlink="http://www.w3.org/1999/xlink"><title/>
    <desc />
    <g><path d="M56.616,23.964c-0.674-0.527-1.398-0.993-2.153-1.387l-0.925,1.773c0.646,0.337,1.268,0.737,1.846,1.189L56.616,23.964z"/>
        <path
            d="M58.103,25.308l-1.443,1.385C58.813,28.937,60,31.887,60,35h2C62,31.368,60.616,27.926,58.103,25.308z" />
        <path
            d="M16.234,10.445l-0.469-1.944C7.661,10.456,2,17.651,2,26h2C4,18.579,9.031,12.183,16.234,10.445z" />
        <path
            d="M20,10V8c-0.706,0-1.418,0.042-2.116,0.123l0.232,1.986C18.737,10.037,19.371,10,20,10z" />
        <rect height="18.385" transform="matrix(0.7071 -0.7071 0.7071 0.7071 -22.4619 28.7721)"
            width="2" x="22.5" y="32.308" />
        <rect height="2.121" transform="matrix(0.7071 -0.7071 0.7071 0.7071 -18.8376 20.0221)"
            width="2" x="13.75" y="31.689" />
        <path
            d="M51.705,26.272c0.073-3.728-1.347-7.328-3.998-9.979c-5.123-5.122-13.32-5.342-18.707-0.66   c-5.387-4.683-13.584-4.462-18.707,0.66c-5.353,5.353-5.353,14.062,0,19.414l18,18C28.488,53.902,28.744,54,29,54   s0.512-0.098,0.707-0.293l5.793-5.793l5.793,5.793C41.488,53.902,41.744,54,42,54s0.512-0.098,0.707-0.293l12-12   c3.698-3.698,3.698-9.716,0-13.414C53.819,27.405,52.796,26.734,51.705,26.272z M29,51.586L11.707,34.293   c-4.573-4.573-4.573-12.013,0-16.586c4.573-4.572,12.013-4.572,16.586,0c0.391,0.391,1.023,0.391,1.414,0   c4.573-4.572,12.013-4.572,16.586,0c2.135,2.136,3.349,4.99,3.429,7.978c-2.671-0.49-5.511,0.16-7.721,1.968   c-3.723-3.044-9.236-2.831-12.707,0.64c-3.698,3.698-3.698,9.716,0,13.414l4.793,4.793L29,51.586z M53.293,40.293L42,51.586   L30.707,40.293c-2.918-2.918-2.918-7.667,0-10.586c1.459-1.459,3.376-2.189,5.293-2.189s3.833,0.73,5.293,2.189   c0.391,0.391,1.023,0.391,1.414,0c2.919-2.918,7.667-2.918,10.586,0C56.211,32.625,56.211,37.375,53.293,40.293z" /></g></svg>